<?xml version="1.0" encoding="UTF-8" standalone="no"?>
<svg
   xmlns:dc="http://purl.org/dc/elements/1.1/"
   xmlns:cc="http://creativecommons.org/ns#"
   xmlns:rdf="http://www.w3.org/1999/02/22-rdf-syntax-ns#"
   xmlns:svg="http://www.w3.org/2000/svg"
   xmlns="http://www.w3.org/2000/svg"
   height="128"
   width="192"
   version="1.1"
   viewBox="0 0 192 128">
  <rect
     y="0"
     x="0"
     height="128"
     width="192"
     style="opacity:1;fill:#000000;fill-opacity:1;stroke:none;" />
  <path
     transform="scale(10, 10)"
     d="M 2.0410156 -0.005859375 A 0.25145974 0.25145974 0 0 0 1.9179688 0.025390625 L 1.0273438 0.51757812 A 0.25145974 0.25145974 0 0 0 0.8984375 0.73828125 L 0.8984375 1.5761719 L 0.13867188 1.9960938 A 0.25145974 0.25145974 0 0 0 0.0078125 2.2148438 L 0.0078125 3.1640625 A 0.25145974 0.25145974 0 0 0 0.037109375 3.3203125 A 0.25145974 0.25145974 0 0 0 0.05078125 3.3417969 A 0.25145974 0.25145974 0 0 0 0.083984375 3.3808594 A 0.25145974 0.25145974 0 0 0 0.17773438 3.4414062 L 0.8984375 3.8398438 L 0.8984375 4.5292969 L 0.13867188 4.9492188 A 0.25145974 0.25145974 0 0 0 0.0078125 5.1699219 L 0.0078125 6.1171875 A 0.25145974 0.25145974 0 0 0 0.037109375 6.2753906 A 0.25145974 0.25145974 0 0 0 0.05078125 6.296875 A 0.25145974 0.25145974 0 0 0 0.17773438 6.3945312 L 0.8984375 6.7929688 L 0.8984375 7.4824219 L 0.13867188 7.9023438 A 0.25145974 0.25145974 0 0 0 0.0078125 8.1230469 L 0.0078125 9.1074219 A 0.25145974 0.25145974 0 0 0 0.13867188 9.328125 L 0.8984375 9.7480469 L 0.8984375 10.4375 L 0.13867188 10.857422 A 0.25145974 0.25145974 0 0 0 0.0078125 11.076172 L 0.0078125 12.023438 A 0.25145974 0.25145974 0 0 0 0.037109375 12.181641 A 0.25145974 0.25145974 0 0 0 0.05078125 12.203125 A 0.25145974 0.25145974 0 0 0 0.05078125 12.205078 A 0.25145974 0.25145974 0 0 0 0.06640625 12.224609 A 0.25145974 0.25145974 0 0 0 0.08203125 12.242188 A 0.25145974 0.25145974 0 0 0 0.083984375 12.242188 A 0.25145974 0.25145974 0 0 0 0.17773438 12.302734 L 1.0273438 12.773438 A 0.25145974 0.25145974 0 0 0 1.2714844 12.773438 L 2.0390625 12.347656 L 2.8066406 12.773438 A 0.25145974 0.25145974 0 0 0 3.0507812 12.773438 L 3.8183594 12.349609 L 4.5859375 12.773438 A 0.25145974 0.25145974 0 0 0 4.8300781 12.773438 L 5.5976562 12.349609 L 6.3652344 12.773438 A 0.25145974 0.25145974 0 0 0 6.609375 12.773438 L 7.3769531 12.349609 L 8.1445312 12.773438 A 0.25145974 0.25145974 0 0 0 8.3886719 12.773438 L 9.15625 12.349609 L 9.9238281 12.773438 A 0.25145974 0.25145974 0 0 0 10.167969 12.773438 L 10.935547 12.349609 L 11.703125 12.773438 A 0.25145974 0.25145974 0 0 0 11.947266 12.773438 L 12.714844 12.349609 L 13.482422 12.773438 A 0.25145974 0.25145974 0 0 0 13.726562 12.773438 L 14.496094 12.349609 L 15.263672 12.773438 A 0.25145974 0.25145974 0 0 0 15.505859 12.773438 L 16.273438 12.349609 L 17.042969 12.773438 A 0.25145974 0.25145974 0 0 0 17.285156 12.773438 L 18.175781 12.28125 A 0.25145974 0.25145974 0 0 0 18.304688 12.0625 L 18.304688 11.224609 L 19.064453 10.804688 A 0.25145974 0.25145974 0 0 0 19.195312 10.583984 L 19.195312 9.5996094 A 0.25145974 0.25145974 0 0 0 19.064453 9.3808594 L 18.304688 8.9589844 L 18.304688 8.2714844 L 19.064453 7.8515625 A 0.25145974 0.25145974 0 0 0 19.195312 7.6308594 L 19.195312 6.6464844 A 0.25145974 0.25145974 0 0 0 19.064453 6.4257812 L 18.304688 6.0058594 L 18.304688 5.3164062 L 19.064453 4.8964844 A 0.25145974 0.25145974 0 0 0 19.195312 4.6777344 L 19.195312 3.6914062 A 0.25145974 0.25145974 0 0 0 19.064453 3.4726562 L 18.304688 3.0527344 L 18.304688 2.3632812 L 19.064453 1.9433594 A 0.25145974 0.25145974 0 0 0 19.195312 1.7226562 L 19.195312 0.73828125 A 0.25145974 0.25145974 0 0 0 19.064453 0.51757812 L 18.175781 0.025390625 A 0.25145974 0.25145974 0 0 0 17.931641 0.025390625 L 17.164062 0.45117188 L 16.396484 0.025390625 A 0.25145974 0.25145974 0 0 0 16.152344 0.025390625 L 15.384766 0.45117188 L 14.617188 0.025390625 A 0.25145974 0.25145974 0 0 0 14.373047 0.025390625 L 13.605469 0.45117188 L 12.837891 0.025390625 A 0.25145974 0.25145974 0 0 0 12.59375 0.025390625 L 11.826172 0.44921875 L 11.058594 0.025390625 A 0.25145974 0.25145974 0 0 0 10.814453 0.025390625 L 10.046875 0.44921875 L 9.2792969 0.025390625 A 0.25145974 0.25145974 0 0 0 9.0351562 0.025390625 L 8.2675781 0.45117188 L 7.5 0.025390625 A 0.25145974 0.25145974 0 0 0 7.2558594 0.025390625 L 6.4882812 0.45117188 L 5.7207031 0.025390625 A 0.25145974 0.25145974 0 0 0 5.4765625 0.025390625 L 4.7089844 0.45117188 L 3.9414062 0.025390625 A 0.25145974 0.25145974 0 0 0 3.6972656 0.025390625 L 2.9296875 0.44921875 L 2.1601562 0.025390625 A 0.25145974 0.25145974 0 0 0 2.0410156 -0.005859375 z M 2.0390625 0.53320312 L 2.6777344 0.88671875 L 2.6777344 1.7226562 A 0.25145974 0.25145974 0 0 0 2.8066406 1.9433594 L 3.6972656 2.4355469 A 0.25145974 0.25145974 0 0 0 3.9414062 2.4355469 L 4.7089844 2.0097656 L 5.3457031 2.3632812 L 5.3457031 3.0507812 L 4.7089844 3.4042969 L 3.9414062 2.9804688 A 0.25145974 0.25145974 0 1 0 3.6972656 3.4199219 L 4.4570312 3.8398438 L 4.4570312 3.9492188 L 3.8476562 3.9492188 A 0.40004001 0.40004001 0 0 0 3.4492188 4.3476562 L 3.4492188 6.0703125 L 2.9296875 6.359375 L 2.1601562 5.9335938 A 0.25145974 0.25145974 0 1 0 1.9179688 6.3730469 L 2.8066406 6.8652344 A 0.25145974 0.25145974 0 0 0 3.0507812 6.8652344 L 3.4492188 6.6445312 L 3.4492188 7.6308594 L 3.0839844 7.4296875 A 0.25145974 0.25145974 0 0 0 3.0800781 7.4257812 A 0.25145974 0.25145974 0 0 0 3.0292969 7.3984375 A 0.25145974 0.25145974 0 0 0 2.9804688 7.3828125 A 0.25145974 0.25145974 0 0 0 2.9550781 7.3789062 A 0.25145974 0.25145974 0 0 0 2.9316406 7.3769531 A 0.25145974 0.25145974 0 0 0 2.90625 7.3789062 A 0.25145974 0.25145974 0 0 0 2.8945312 7.3808594 A 0.25145974 0.25145974 0 0 0 2.8691406 7.3847656 A 0.25145974 0.25145974 0 0 0 2.8222656 7.4023438 A 0.25145974 0.25145974 0 0 0 2.7753906 7.4277344 L 1.9179688 7.9023438 A 0.25145974 0.25145974 0 0 0 1.7871094 8.1230469 L 1.7871094 8.9589844 L 1.1503906 9.3125 L 0.51171875 8.9589844 L 0.51171875 8.2714844 L 1.2382812 7.8691406 A 0.25145974 0.25145974 0 0 0 1.3320312 7.8066406 A 0.25145974 0.25145974 0 0 0 1.3632812 7.7675781 A 0.25145974 0.25145974 0 0 0 1.375 7.7441406 A 0.25145974 0.25145974 0 0 0 1.4003906 7.5859375 L 1.4003906 6.6953125 A 0.25145974 0.25145974 0 0 0 1.3828125 6.5488281 A 0.25145974 0.25145974 0 0 0 1.3828125 6.546875 A 0.25145974 0.25145974 0 0 0 1.359375 6.5039062 A 0.25145974 0.25145974 0 0 0 1.34375 6.484375 A 0.25145974 0.25145974 0 0 0 1.34375 6.4824219 A 0.25145974 0.25145974 0 0 0 1.3261719 6.4648438 A 0.25145974 0.25145974 0 0 0 1.2441406 6.4101562 A 0.25145974 0.25145974 0 0 0 1.2402344 6.4082031 L 0.51171875 6.0058594 L 0.51171875 5.3183594 L 1.1503906 4.9648438 L 1.9179688 5.3886719 A 0.25145974 0.25145974 0 0 0 2.1601562 5.3886719 L 3.0507812 4.8964844 A 0.25145974 0.25145974 0 0 0 3.1796875 4.6777344 L 3.1796875 3.6914062 A 0.25145974 0.25145974 0 1 0 2.6777344 3.6914062 L 2.6777344 4.5292969 L 2.0390625 4.8808594 L 1.4003906 4.5273438 L 1.4003906 3.8398438 L 2.1601562 3.4199219 A 0.25145974 0.25145974 0 1 0 1.9179688 2.9804688 L 1.1503906 3.4042969 L 0.51171875 3.0527344 L 0.51171875 2.3632812 L 1.1503906 2.0117188 L 1.9179688 2.4355469 A 0.25145974 0.25145974 0 1 0 2.1601562 1.9960938 L 1.4003906 1.5761719 L 1.4003906 0.88671875 L 2.0390625 0.53320312 z M 3.8183594 0.53320312 L 4.5859375 0.95898438 A 0.25145974 0.25145974 0 0 0 4.8300781 0.95898438 L 5.5976562 0.53320312 L 6.3652344 0.95898438 A 0.25145974 0.25145974 0 0 0 6.609375 0.95898438 L 7.3769531 0.53320312 L 8.1445312 0.95898438 A 0.25145974 0.25145974 0 0 0 8.3886719 0.95898438 L 9.15625 0.53320312 L 9.7949219 0.88671875 L 9.7949219 1.7226562 A 0.25145974 0.25145974 0 0 0 9.9238281 1.9433594 L 10.814453 2.4355469 A 0.25145974 0.25145974 0 1 0 11.058594 1.9960938 L 10.298828 1.5742188 L 10.298828 0.88671875 L 10.935547 0.53320312 L 11.574219 0.88671875 L 11.574219 1.7226562 A 0.25145974 0.25145974 0 0 0 11.703125 1.9433594 L 12.464844 2.3632812 L 12.464844 3.0507812 L 11.748047 3.4492188 L 11.738281 3.453125 A 0.25145974 0.25145974 0 0 0 11.626953 3.5351562 A 0.25145974 0.25145974 0 0 0 11.611328 3.5566406 A 0.25145974 0.25145974 0 0 0 11.599609 3.578125 A 0.25145974 0.25145974 0 0 0 11.589844 3.6015625 A 0.25145974 0.25145974 0 0 0 11.574219 3.7324219 L 11.574219 3.9492188 L 10.298828 3.9492188 L 10.298828 3.8398438 L 11.058594 3.4199219 A 0.25145974 0.25145974 0 1 0 10.814453 2.9804688 L 10.046875 3.4042969 L 9.4082031 3.0507812 L 9.4082031 2.2148438 A 0.25145974 0.25145974 0 0 0 9.1660156 1.9472656 A 0.25145974 0.25145974 0 0 0 8.90625 2.2148438 L 8.90625 3.1992188 A 0.25145974 0.25145974 0 0 0 9.0351562 3.4199219 L 9.7949219 3.8398438 L 9.7949219 3.9492188 L 8.5175781 3.9492188 L 8.5175781 3.6914062 A 0.25145974 0.25145974 0 0 0 8.3886719 3.4726562 L 7.6289062 3.0527344 L 7.6289062 2.3632812 L 8.3886719 1.9433594 A 0.25145974 0.25145974 0 0 0 8.2636719 1.46875 A 0.25145974 0.25145974 0 0 0 8.1445312 1.5039062 L 7.2558594 1.9960938 A 0.25145974 0.25145974 0 0 0 7.125 2.2148438 L 7.125 3.0507812 L 6.3652344 3.4726562 A 0.25145974 0.25145974 0 1 0 6.609375 3.9121094 L 7.3769531 3.4882812 L 8.015625 3.8398438 L 8.015625 3.9492188 L 4.9589844 3.9492188 L 4.9589844 3.8417969 L 5.7207031 3.4199219 A 0.25145974 0.25145974 0 0 0 5.8496094 3.1992188 L 5.8496094 2.3632812 L 6.609375 1.9433594 A 0.25145974 0.25145974 0 1 0 6.3652344 1.5039062 L 5.5976562 1.9277344 L 4.8300781 1.5039062 A 0.25145974 0.25145974 0 0 0 4.5859375 1.5039062 L 3.8183594 1.9277344 L 3.1796875 1.5742188 L 3.1796875 0.88671875 L 3.8183594 0.53320312 z M 12.714844 0.53320312 L 13.482422 0.95898438 A 0.25145974 0.25145974 0 0 0 13.726562 0.95898438 L 14.494141 0.53320312 L 15.132812 0.88671875 L 15.132812 1.7226562 A 0.25145974 0.25145974 0 0 0 15.263672 1.9433594 L 16.023438 2.3632812 L 16.023438 3.1992188 A 0.25145974 0.25145974 0 1 0 16.525391 3.1992188 L 16.525391 2.2148438 A 0.25145974 0.25145974 0 0 0 16.396484 1.9960938 L 15.636719 1.5742188 L 15.636719 0.88671875 L 16.273438 0.53320312 L 16.912109 0.88671875 L 16.912109 1.7226562 A 0.2519535 0.2519535 0 1 0 17.416016 1.7226562 L 17.416016 0.88671875 L 18.052734 0.53320312 L 18.691406 0.88671875 L 18.691406 1.5742188 L 17.931641 1.9960938 A 0.25145974 0.25145974 0 0 0 17.802734 2.2148438 L 17.802734 3.0507812 L 17.042969 3.4726562 A 0.25145974 0.25145974 0 1 0 17.285156 3.9121094 L 18.052734 3.4882812 L 18.691406 3.8398438 L 18.691406 4.5292969 L 18.052734 4.8808594 L 17.320312 4.4765625 L 17.318359 4.4746094 A 0.25145974 0.25145974 0 0 0 17.240234 4.4355469 A 0.25145974 0.25145974 0 0 0 17.228516 4.4316406 A 0.25145974 0.25145974 0 0 0 17.191406 4.4257812 A 0.25145974 0.25145974 0 0 0 17.179688 4.4238281 A 0.25145974 0.25145974 0 0 0 17.166016 4.4238281 A 0.25145974 0.25145974 0 0 0 17.128906 4.4257812 A 0.25145974 0.25145974 0 0 0 17.005859 4.4765625 A 0.25145974 0.25145974 0 0 0 17.001953 4.4804688 L 16.152344 4.9492188 A 0.25145974 0.25145974 0 0 0 16.023438 5.1699219 L 16.023438 6.1542969 A 0.25145974 0.25145974 0 1 0 16.525391 6.1542969 L 16.525391 5.3183594 L 17.164062 4.9628906 L 17.802734 5.3164062 L 17.802734 6.0058594 L 17.042969 6.4257812 A 0.25145974 0.25145974 0 1 0 17.285156 6.8652344 L 18.052734 6.4414062 L 18.691406 6.7949219 L 18.691406 7.4824219 L 18.052734 7.8359375 L 17.318359 7.4296875 L 17.314453 7.4257812 A 0.25145974 0.25145974 0 0 0 17.214844 7.3828125 A 0.25145974 0.25145974 0 0 0 17.179688 7.3769531 A 0.25145974 0.25145974 0 0 0 17.140625 7.3789062 A 0.25145974 0.25145974 0 0 0 17.128906 7.3808594 A 0.25145974 0.25145974 0 0 0 17.080078 7.3925781 A 0.25145974 0.25145974 0 0 0 17.005859 7.4296875 A 0.25145974 0.25145974 0 0 0 17.001953 7.4335938 L 16.152344 7.9023438 A 0.25145974 0.25145974 0 0 0 16.023438 8.1230469 L 16.023438 8.9589844 L 15.263672 9.3808594 A 0.25145974 0.25145974 0 1 0 15.505859 9.8203125 L 16.396484 9.328125 A 0.25145974 0.25145974 0 0 0 16.525391 9.1074219 L 16.525391 8.2714844 L 17.164062 7.9179688 L 17.802734 8.2714844 L 17.802734 9.1074219 A 0.25145974 0.25145974 0 0 0 17.931641 9.328125 L 18.691406 9.7480469 L 18.691406 10.435547 L 18.052734 10.789062 L 17.416016 10.435547 L 17.416016 9.5996094 A 0.2519535 0.2519535 0 1 0 16.912109 9.5996094 L 16.912109 10.583984 A 0.25145974 0.25145974 0 0 0 17.042969 10.804688 L 17.802734 11.224609 L 17.802734 11.914062 L 17.164062 12.265625 L 16.433594 11.861328 L 16.429688 11.859375 A 0.25145974 0.25145974 0 0 0 16.349609 11.820312 A 0.25145974 0.25145974 0 0 0 16.326172 11.814453 A 0.25145974 0.25145974 0 0 0 16.300781 11.810547 A 0.25145974 0.25145974 0 0 0 16.289062 11.808594 A 0.25145974 0.25145974 0 0 0 16.275391 11.808594 A 0.25145974 0.25145974 0 0 0 16.265625 11.808594 A 0.25145974 0.25145974 0 0 0 16.240234 11.810547 A 0.25145974 0.25145974 0 0 0 16.226562 11.8125 A 0.25145974 0.25145974 0 0 0 16.214844 11.816406 A 0.25145974 0.25145974 0 0 0 16.121094 11.859375 L 15.384766 12.265625 L 14.746094 11.912109 L 14.746094 11.224609 L 15.384766 10.871094 L 16.152344 11.296875 A 0.25145974 0.25145974 0 1 0 16.396484 10.857422 L 15.542969 10.384766 L 15.539062 10.382812 A 0.25145974 0.25145974 0 0 0 15.484375 10.353516 A 0.25145974 0.25145974 0 0 0 15.460938 10.34375 A 0.25145974 0.25145974 0 0 0 15.449219 10.339844 A 0.25145974 0.25145974 0 0 0 15.412109 10.333984 A 0.25145974 0.25145974 0 0 0 15.400391 10.332031 A 0.25145974 0.25145974 0 0 0 15.386719 10.332031 A 0.25145974 0.25145974 0 0 0 15.361328 10.332031 A 0.25145974 0.25145974 0 0 0 15.349609 10.333984 A 0.25145974 0.25145974 0 0 0 15.3125 10.341797 A 0.25145974 0.25145974 0 0 0 15.300781 10.345703 A 0.25145974 0.25145974 0 0 0 15.277344 10.355469 A 0.25145974 0.25145974 0 0 0 15.222656 10.386719 A 0.25145974 0.25145974 0 0 0 15.220703 10.388672 L 14.373047 10.857422 A 0.25145974 0.25145974 0 0 0 14.244141 11.076172 L 14.244141 11.914062 L 13.605469 12.265625 L 12.837891 11.841797 A 0.25145974 0.25145974 0 0 0 12.59375 11.841797 L 11.826172 12.265625 L 11.1875 11.912109 L 11.1875 11.224609 L 11.947266 10.804688 A 0.25145974 0.25145974 0 1 0 11.703125 10.365234 L 10.814453 10.857422 A 0.25145974 0.25145974 0 0 0 10.685547 11.076172 L 10.685547 11.914062 L 10.046875 12.265625 L 9.4082031 11.912109 L 9.4082031 11.224609 L 10.167969 10.804688 A 0.25145974 0.25145974 0 1 0 9.9238281 10.365234 L 9.0351562 10.857422 A 0.25145974 0.25145974 0 0 0 8.90625 11.076172 L 8.90625 11.914062 L 8.2675781 12.265625 L 7.5 11.841797 A 0.25145974 0.25145974 0 0 0 7.2558594 11.841797 L 6.4882812 12.265625 L 5.7207031 11.841797 A 0.25145974 0.25145974 0 0 0 5.4765625 11.841797 L 4.7089844 12.265625 L 4.0703125 11.914062 L 4.0703125 11.076172 A 0.25195315 0.25195315 0 1 0 3.5664062 11.076172 L 3.5664062 11.914062 L 2.9296875 12.265625 L 2.203125 11.865234 A 0.25145974 0.25145974 0 0 0 2.1152344 11.820312 A 0.25145974 0.25145974 0 0 0 2.0917969 11.814453 A 0.25145974 0.25145974 0 0 0 2.0664062 11.810547 A 0.25145974 0.25145974 0 0 0 2.0546875 11.808594 A 0.25145974 0.25145974 0 0 0 2.0410156 11.808594 A 0.25145974 0.25145974 0 0 0 2.0292969 11.808594 A 0.25145974 0.25145974 0 0 0 2.0058594 11.810547 A 0.25145974 0.25145974 0 0 0 1.8867188 11.859375 L 1.1503906 12.265625 L 0.51171875 11.914062 L 0.51171875 11.224609 L 1.1503906 10.873047 L 1.9179688 11.296875 A 0.25145974 0.25145974 0 1 0 2.1601562 10.857422 L 1.4003906 10.4375 L 1.4003906 9.7480469 L 2.0390625 9.3945312 L 2.6777344 9.7480469 L 2.6777344 10.583984 A 0.25145974 0.25145974 0 1 0 3.1796875 10.583984 L 3.1796875 9.6484375 A 0.25145974 0.25145974 0 0 0 3.1621094 9.5019531 A 0.25145974 0.25145974 0 0 0 3.1386719 9.4570312 A 0.25145974 0.25145974 0 0 0 3.1230469 9.4375 A 0.25145974 0.25145974 0 0 0 3.0878906 9.4023438 A 0.25145974 0.25145974 0 0 0 3.0859375 9.4023438 A 0.25145974 0.25145974 0 0 0 3.0117188 9.359375 L 2.2910156 8.9589844 L 2.2910156 8.2714844 L 2.9296875 7.9199219 L 3.4492188 8.2070312 L 3.4492188 8.4511719 A 0.40004001 0.40004001 0 0 0 3.5664062 8.734375 L 3.5664062 9.1074219 A 0.25145974 0.25145974 0 0 0 3.6972656 9.328125 L 4.4570312 9.7480469 L 4.4570312 10.583984 A 0.25145974 0.25145974 0 0 0 4.5859375 10.804688 L 5.4765625 11.296875 A 0.25145974 0.25145974 0 0 0 5.7207031 11.296875 L 6.4882812 10.871094 L 7.2558594 11.296875 A 0.25145974 0.25145974 0 0 0 7.5 11.296875 L 8.3886719 10.804688 A 0.25145974 0.25145974 0 1 0 8.1445312 10.365234 L 7.3769531 10.789062 L 6.7382812 10.435547 L 6.7382812 9.5996094 A 0.25145974 0.25145974 0 1 0 6.2363281 9.5996094 L 6.2363281 10.435547 L 5.5976562 10.789062 L 4.9589844 10.435547 L 4.9589844 9.5996094 A 0.25145974 0.25145974 0 0 0 4.8300781 9.3808594 L 4.0703125 8.9589844 L 4.0703125 8.8515625 L 5.3457031 8.8515625 L 5.3457031 9.1074219 A 0.25195315 0.25195315 0 0 0 5.8496094 9.1074219 L 5.8496094 8.8515625 L 7.125 8.8515625 L 7.125 9.1074219 A 0.2519531 0.2519531 0 0 0 7.6289062 9.1074219 L 7.6289062 8.8515625 L 8.90625 8.8515625 L 8.90625 8.9589844 L 8.1445312 9.3808594 A 0.25145974 0.25145974 0 1 0 8.3886719 9.8203125 L 9.2792969 9.328125 A 0.25145974 0.25145974 0 0 0 9.4082031 9.1074219 L 9.4082031 8.8515625 L 10.685547 8.8515625 L 10.685547 8.9589844 L 9.9238281 9.3808594 A 0.25145974 0.25145974 0 1 0 10.167969 9.8203125 L 11.058594 9.328125 A 0.25145974 0.25145974 0 0 0 11.1875 9.1074219 L 11.1875 8.8515625 L 14.244141 8.8515625 L 14.244141 8.9589844 L 13.605469 9.3125 L 12.871094 8.90625 A 0.25145974 0.25145974 0 0 0 12.857422 8.8984375 L 12.849609 8.8925781 A 0.25145974 0.25145974 0 0 0 12.837891 8.8867188 A 0.25145974 0.25145974 0 0 0 12.767578 8.8613281 A 0.25145974 0.25145974 0 0 0 12.742188 8.8554688 A 0.25145974 0.25145974 0 0 0 12.730469 8.8554688 A 0.25145974 0.25145974 0 0 0 12.716797 8.8554688 A 0.25145974 0.25145974 0 0 0 12.707031 8.8554688 A 0.25145974 0.25145974 0 0 0 12.681641 8.8574219 A 0.25145974 0.25145974 0 0 0 12.667969 8.859375 A 0.25145974 0.25145974 0 0 0 12.648438 8.8632812 A 0.25145974 0.25145974 0 0 0 12.642578 8.8652344 A 0.25145974 0.25145974 0 0 0 12.632812 8.8691406 A 0.25145974 0.25145974 0 0 0 12.574219 8.8964844 A 0.25145974 0.25145974 0 0 0 12.566406 8.9023438 L 11.703125 9.3808594 A 0.25145974 0.25145974 0 1 0 11.947266 9.8203125 L 12.714844 9.3964844 L 13.353516 9.7480469 L 13.353516 10.435547 L 12.59375 10.857422 A 0.25145974 0.25145974 0 1 0 12.837891 11.296875 L 13.726562 10.804688 A 0.25145974 0.25145974 0 0 0 13.857422 10.583984 L 13.857422 9.7480469 L 14.617188 9.328125 A 0.25145974 0.25145974 0 0 0 14.746094 9.1074219 L 14.746094 8.8515625 L 15.351562 8.8515625 A 0.40004001 0.40004001 0 0 0 15.751953 8.4511719 L 15.751953 4.3476562 A 0.40004001 0.40004001 0 0 0 15.392578 3.9511719 A 0.25145974 0.25145974 0 0 0 15.505859 3.4726562 L 14.746094 3.0527344 L 14.746094 2.2519531 A 0.25145974 0.25145974 0 0 0 14.728516 2.1171875 A 0.25145974 0.25145974 0 0 0 14.716797 2.09375 A 0.25145974 0.25145974 0 0 0 14.689453 2.0527344 A 0.25145974 0.25145974 0 0 0 14.671875 2.0351562 A 0.25145974 0.25145974 0 0 0 14.578125 1.9746094 L 13.763672 1.5234375 L 13.759766 1.5214844 A 0.25145974 0.25145974 0 0 0 13.681641 1.4824219 A 0.25145974 0.25145974 0 0 0 13.669922 1.4785156 A 0.25145974 0.25145974 0 0 0 13.638672 1.4726562 A 0.25145974 0.25145974 0 0 0 13.632812 1.4707031 A 0.25145974 0.25145974 0 0 0 13.621094 1.4707031 A 0.25145974 0.25145974 0 0 0 13.607422 1.4707031 A 0.25145974 0.25145974 0 0 0 13.582031 1.4707031 A 0.25145974 0.25145974 0 0 0 13.570312 1.4726562 A 0.25145974 0.25145974 0 0 0 13.533203 1.4804688 A 0.25145974 0.25145974 0 0 0 13.521484 1.484375 A 0.25145974 0.25145974 0 0 0 13.498047 1.4941406 A 0.25145974 0.25145974 0 0 0 13.443359 1.5253906 L 12.716797 1.9277344 L 12.078125 1.5742188 L 12.078125 0.88671875 L 12.714844 0.53320312 z M 13.605469 2.0117188 L 14.244141 2.3652344 L 14.244141 3.0507812 L 13.482422 3.4726562 A 0.25145974 0.25145974 0 1 0 13.726562 3.9121094 L 14.496094 3.4882812 L 15.263672 3.9121094 A 0.25145974 0.25145974 0 0 0 15.357422 3.9492188 A 0.40004001 0.40004001 0 0 0 15.351562 3.9492188 L 12.078125 3.9492188 L 12.078125 3.8398438 L 12.837891 3.4199219 A 0.25145974 0.25145974 0 0 0 12.966797 3.1992188 L 12.966797 2.3632812 L 13.605469 2.0117188 z M 4.2480469 4.7480469 L 14.951172 4.7480469 L 14.951172 8.0507812 L 4.2480469 8.0507812 L 4.2480469 4.7480469 z M 4.5996094 5.3769531 L 4.5996094 5.5097656 L 5.03125 5.5097656 L 5.03125 6.9453125 L 5.1738281 6.9453125 L 5.1738281 5.5097656 L 5.6074219 5.5097656 L 5.6074219 5.3769531 L 4.5996094 5.3769531 z M 8.609375 5.6035156 L 8.609375 5.9941406 L 8.4335938 5.9941406 L 8.4335938 6.1074219 L 8.609375 6.1074219 L 8.609375 6.9453125 L 8.7382812 6.9453125 L 8.7382812 6.1074219 L 8.9296875 6.1074219 L 8.9296875 5.9941406 L 8.7382812 5.9941406 L 8.7382812 5.6035156 L 8.609375 5.6035156 z M 11.855469 5.6035156 L 11.855469 5.9941406 L 11.681641 5.9941406 L 11.681641 6.1074219 L 11.855469 6.1074219 L 11.855469 6.9453125 L 11.986328 6.9453125 L 11.986328 6.1074219 L 12.175781 6.1074219 L 12.175781 5.9941406 L 11.986328 5.9941406 L 11.986328 5.6035156 L 11.855469 5.6035156 z M 14.279297 5.6035156 L 14.279297 5.9941406 L 14.107422 5.9941406 L 14.111328 5.9804688 C 14.092741 5.9740341 14.073987 5.9684171 14.054688 5.9648438 C 14.036101 5.9612704 14.018587 5.9589844 14 5.9589844 C 13.937809 5.9589844 13.883118 5.9774061 13.835938 6.0117188 C 13.78947 6.0460314 13.741966 6.1033394 13.693359 6.1855469 L 13.693359 5.9941406 L 13.560547 5.9941406 L 13.560547 6.9453125 L 13.693359 6.9453125 L 13.693359 6.4785156 C 13.693359 6.3677143 13.721584 6.275516 13.777344 6.2011719 C 13.833817 6.1268277 13.901121 6.0898437 13.980469 6.0898438 C 13.994762 6.0898438 14.008424 6.09089 14.023438 6.09375 C 14.039171 6.096612 14.054066 6.099229 14.068359 6.1035156 L 14.105469 5.9980469 L 14.105469 6.1074219 L 14.279297 6.1074219 L 14.279297 6.9453125 L 14.408203 6.9453125 L 14.408203 6.1074219 L 14.599609 6.1074219 L 14.599609 5.9941406 L 14.408203 5.9941406 L 14.408203 5.6035156 L 14.279297 5.6035156 z M 11.232422 5.9570312 C 11.141635 5.9570313 11.068905 5.9829722 11.011719 6.0351562 C 10.954532 6.0866252 10.925781 6.1535973 10.925781 6.234375 C 10.925781 6.2958519 10.946295 6.3464959 10.986328 6.3886719 C 11.026359 6.4301329 11.095236 6.470449 11.195312 6.5097656 C 11.203179 6.513337 11.214936 6.5184308 11.228516 6.5234375 C 11.357903 6.5741917 11.421875 6.63607 11.421875 6.7089844 C 11.421875 6.7561642 11.405927 6.7936716 11.373047 6.8222656 C 11.340166 6.850145 11.295994 6.8652344 11.240234 6.8652344 C 11.18305 6.8652344 11.135023 6.8506681 11.095703 6.8242188 C 11.05639 6.7970545 11.02464 6.7579768 11.003906 6.7050781 L 10.878906 6.7773438 C 10.904643 6.8445395 10.946006 6.8964217 11.003906 6.9335938 C 11.062524 6.9700511 11.132113 6.9882812 11.212891 6.9882812 C 11.317972 6.9882812 11.40265 6.9623402 11.464844 6.9101562 C 11.527037 6.8579724 11.558594 6.7883833 11.558594 6.7011719 C 11.558594 6.6253979 11.540366 6.564375 11.503906 6.5214844 C 11.468164 6.4785936 11.397337 6.4388011 11.292969 6.4023438 C 11.200751 6.3716057 11.140635 6.344094 11.111328 6.3183594 C 11.082021 6.2926247 11.066406 6.2600198 11.066406 6.2207031 C 11.066406 6.1806718 11.082021 6.1475431 11.111328 6.1210938 C 11.141349 6.0939298 11.178856 6.0800781 11.224609 6.0800781 C 11.275364 6.0800781 11.318489 6.0916444 11.353516 6.1152344 C 11.388542 6.1388244 11.412721 6.1737147 11.427734 6.21875 L 11.548828 6.1503906 C 11.523807 6.088199 11.484014 6.0414105 11.429688 6.0078125 C 11.375359 5.9742145 11.309625 5.9570312 11.232422 5.9570312 z M 5.9238281 5.9589844 C 5.7937259 5.9589844 5.6876762 6.0070112 5.6054688 6.1035156 C 5.5232613 6.1993052 5.4824219 6.3243 5.4824219 6.4765625 C 5.4824219 6.6302547 5.5244996 6.7540112 5.6074219 6.8476562 C 5.6910591 6.9413012 5.8009641 6.9882812 5.9375 6.9882812 C 6.0147037 6.9882813 6.0802461 6.9700511 6.1367188 6.9335938 C 6.1939065 6.8964218 6.240031 6.8415394 6.2714844 6.7714844 L 6.2714844 6.9453125 L 6.4023438 6.9453125 L 6.4023438 5.9941406 L 6.2714844 5.9941406 L 6.2714844 6.1679688 C 6.239316 6.0993432 6.1921445 6.0486992 6.1328125 6.0136719 C 6.074195 5.9779292 6.0046059 5.9589844 5.9238281 5.9589844 z M 7.2265625 5.9589844 C 7.1536478 5.9589844 7.0879142 5.978453 7.0292969 6.015625 C 6.9706796 6.0520822 6.9231761 6.1032496 6.8867188 6.171875 L 6.8867188 5.9941406 L 6.7578125 5.9941406 L 6.7578125 7.4238281 L 6.8867188 7.4238281 L 6.8867188 6.7695312 C 6.9238909 6.841016 6.9706796 6.8964218 7.0292969 6.9335938 C 7.0879145 6.9700511 7.1559331 6.9882812 7.2324219 6.9882812 C 7.3653835 6.9882813 7.4726716 6.9405864 7.5527344 6.8476562 C 7.6327974 6.7540112 7.671875 6.6304461 7.671875 6.4746094 C 7.671875 6.3194875 7.6310355 6.1952075 7.5488281 6.1015625 C 7.4673355 6.0072026 7.360239 5.9589844 7.2265625 5.9589844 z M 9.5585938 5.9589844 C 9.4899682 5.9589844 9.4235195 5.9723122 9.3613281 5.9980469 C 9.2991361 6.0237817 9.2439218 6.0607657 9.1953125 6.109375 C 9.1474179 6.1572695 9.1116722 6.2131986 9.0859375 6.2753906 C 9.0602028 6.3375823 9.046875 6.4033161 9.046875 6.4726562 C 9.046875 6.5427113 9.0589636 6.608445 9.0839844 6.6699219 C 9.1090038 6.7313987 9.1454644 6.7848513 9.1933594 6.8320312 C 9.2441133 6.8820706 9.301089 6.9208162 9.3632812 6.9472656 C 9.4254729 6.9744296 9.4906832 6.9882812 9.5585938 6.9882812 C 9.627934 6.9882812 9.6941912 6.9744296 9.7578125 6.9472656 C 9.8221488 6.9208163 9.8796482 6.8820706 9.9296875 6.8320312 C 9.9782979 6.7841362 10.015282 6.7294454 10.041016 6.6679688 C 10.066749 6.6057771 10.080078 6.5412816 10.080078 6.4726562 C 10.080078 6.4040312 10.065509 6.3375826 10.039062 6.2753906 C 10.013328 6.2131986 9.977059 6.1579843 9.9277344 6.109375 C 9.8784096 6.0607655 9.8214338 6.0237815 9.7578125 5.9980469 C 9.6949061 5.9723122 9.628649 5.9589844 9.5585938 5.9589844 z M 12.728516 5.9589844 C 12.598414 5.9589844 12.492364 6.0070112 12.410156 6.1035156 C 12.327949 6.1993052 12.287109 6.3243 12.287109 6.4765625 C 12.287109 6.6302547 12.329187 6.7540112 12.412109 6.8476562 C 12.495747 6.9413012 12.605651 6.9882812 12.742188 6.9882812 C 12.819391 6.9882813 12.884933 6.9700511 12.941406 6.9335938 C 12.998594 6.8964218 13.044719 6.8415394 13.076172 6.7714844 L 13.076172 6.9453125 L 13.207031 6.9453125 L 13.207031 5.9941406 L 13.076172 5.9941406 L 13.076172 6.1679688 C 13.044005 6.0993432 12.996833 6.0486992 12.9375 6.0136719 C 12.878883 5.9779292 12.809294 5.9589844 12.728516 5.9589844 z M 5.9511719 6.0800781 C 6.0505355 6.0800781 6.130312 6.114445 6.1875 6.1816406 C 6.244688 6.2481214 6.2734375 6.3385581 6.2734375 6.4550781 C 6.2734375 6.582321 6.2434495 6.682945 6.1855469 6.7558594 C 6.1283591 6.828059 6.0492973 6.8652344 5.9492188 6.8652344 C 5.8462806 6.8652344 5.7686486 6.8301525 5.7128906 6.7636719 C 5.6578473 6.6971911 5.6289062 6.6034225 5.6289062 6.4804688 C 5.6289061 6.3560852 5.6588942 6.2582699 5.7167969 6.1875 C 5.7746995 6.1160153 5.8518081 6.0800781 5.9511719 6.0800781 z M 7.2128906 6.0800781 C 7.3115396 6.0800781 7.3895545 6.1167301 7.4453125 6.1875 C 7.5017852 6.257555 7.5292969 6.3536087 7.5292969 6.4765625 C 7.5292969 6.5988014 7.5028327 6.6930934 7.4492188 6.7617188 C 7.3963202 6.8296293 7.322352 6.8652344 7.2265625 6.8652344 C 7.1250538 6.8652344 7.0426601 6.828059 6.9804688 6.7558594 C 6.9189914 6.682945 6.8886719 6.5863678 6.8886719 6.4648438 C 6.8886719 6.3454642 6.9174214 6.2515042 6.9746094 6.1835938 C 7.0325119 6.1149684 7.1113822 6.0800781 7.2128906 6.0800781 z M 12.755859 6.0800781 C 12.855224 6.0800781 12.935001 6.114445 12.992188 6.1816406 C 13.049374 6.2481214 13.078125 6.3385581 13.078125 6.4550781 C 13.078125 6.582321 13.048134 6.682945 12.990234 6.7558594 C 12.933046 6.828059 12.853985 6.8652344 12.753906 6.8652344 C 12.65097 6.8652344 12.571385 6.8301525 12.515625 6.7636719 C 12.460578 6.6971911 12.433594 6.6034225 12.433594 6.4804688 C 12.433594 6.3560853 12.463584 6.2582699 12.521484 6.1875 C 12.579387 6.1160153 12.656495 6.0800781 12.755859 6.0800781 z M 9.5625 6.0820312 C 9.6675824 6.0820313 9.7559253 6.1202536 9.828125 6.1953125 C 9.9003246 6.2703715 9.9375 6.363808 9.9375 6.4746094 C 9.9375 6.583981 9.9010395 6.6761793 9.828125 6.7519531 C 9.7559254 6.8270121 9.6668676 6.8652344 9.5625 6.8652344 C 9.4581323 6.8652344 9.3690746 6.8270121 9.296875 6.7519531 C 9.2246753 6.6761793 9.1894531 6.583981 9.1894531 6.4746094 C 9.1894531 6.363808 9.2246753 6.2703715 9.296875 6.1953125 C 9.3690746 6.1202536 9.4581323 6.0820312 9.5625 6.0820312 z "
     style="color:#000000;font-style:normal;font-variant:normal;font-weight:normal;font-stretch:normal;font-size:medium;line-height:normal;font-family:sans-serif;font-variant-ligatures:normal;font-variant-position:normal;font-variant-caps:normal;font-variant-numeric:normal;font-variant-alternates:normal;font-feature-settings:normal;text-indent:0;text-align:start;text-decoration:none;text-decoration-line:none;text-decoration-style:solid;text-decoration-color:#000000;letter-spacing:normal;word-spacing:normal;text-transform:none;writing-mode:lr-tb;direction:ltr;text-orientation:mixed;dominant-baseline:auto;baseline-shift:baseline;text-anchor:start;white-space:normal;shape-padding:0;clip-rule:nonzero;display:inline;overflow:visible;visibility:visible;opacity:1;isolation:auto;mix-blend-mode:normal;color-interpolation:sRGB;color-interpolation-filters:linearRGB;solid-color:#000000;solid-opacity:1;vector-effect:none;fill:#ffffff;fill-opacity:1;fill-rule:nonzero;stroke:none;stroke-width:0.50286919;stroke-linecap:round;stroke-linejoin:round;stroke-miterlimit:4;stroke-dasharray:none;stroke-dashoffset:0;stroke-opacity:1;color-rendering:auto;image-rendering:auto;shape-rendering:auto;text-rendering:auto;enable-background:accumulate" />
  <text
     id="text4544"
     y="9.6633472"
     x="2.0656779"
     style="font-style:normal;font-variant:normal;font-weight:normal;font-stretch:normal;font-size:5.33333333px;line-height:125%;font-family:'Futura Md BT';-inkscape-font-specification:'Futura Md BT';letter-spacing:0px;word-spacing:0px;fill:#000000;fill-opacity:1;stroke:none;stroke-width:1px;stroke-linecap:butt;stroke-linejoin:miter;stroke-opacity:1;"
     xml:space="preserve"><tspan
       y="45.05397"
       x="2.0656779"
       id="tspan4542" /></text>
</svg>
